<?xml version="1.0" standalone="no"?> <!DOCTYPE svg PUBLIC "-//W3C//DTD SVG 1.0//EN" "http://www.w3.org/TR/2001/REC-SVG-20010904/DTD/svg10.dtd" > <svg xmlns="http://www.w3.org/2000/svg" width="100%" height="100%">
<defs >
<font horiz-adv-x="458" ><font-face
    font-family="Titania"
    units-per-em="1000"
    panose-1="0 0 4 0 0 0 0 0 0 0"
    ascent="890"
    descent="-200"
    alphabetic="0" />
<missing-glyph horiz-adv-x="500" d="M63 0V800H438V0H63ZM125 63H375V738H125V63Z" />
<glyph unicode=" " glyph-name="space" horiz-adv-x="220" />
<glyph unicode="!" glyph-name="exclam" horiz-adv-x="320" d="M293 632Q207 413 164 154H158Q119 392 24 628Q46 648 91 682T158 734H170Q182 721 293 632ZM249 56Q249 19 224 -6T161 -32Q124 -32 99 -7T73 56Q73 93 98 118T161 144Q198 144 223 119T249 56Z" />
<glyph unicode="&quot;" glyph-name="quotedbl" horiz-adv-x="250" d="M159 493H93L67 768H182L159 493ZM325 493H259L233 768H348L325 493Z" />
<glyph unicode="#" glyph-name="numbersign" horiz-adv-x="525" d="M502 507L485 453H387L357 358H456L440 304H342L299 160H237L279 304H185L143 160H80L123 304H24L40 358H139L168 453H69L86 507H185L227 651H289L247 507H341L384 651H446L404 507H502ZM325
453H230L201 358H295L325 453Z" />
<glyph unicode="$" glyph-name="dollar" horiz-adv-x="677" d="M642 177Q620 94 530 48Q471 18 358 -3V-49Q359 -54 329 -54Q299 -54 299 -48V-3Q289 -2 215 14Q161 26 127 26Q76 26 40 3Q30 3 30 11Q60 169 160 229Q167 227 166 217Q165 209 164 201Q158 129
214 77Q246 47 299 35V298Q277 302 234 311Q157 330 138 337Q85 358 60 400Q43 427 43 461Q43 477 48 491Q84 606 286 636Q293 638 294 645V689Q294 697 323 697Q352 697 352 687V643Q356 632 368 628Q389 626 444 615Q493 604 521 604Q569 604 604 630Q611 630
611 625Q611 623 609 616T608 606Q591 567 574 528Q548 485 505 485Q475 485 443 521Q391 578 386 582Q373 592 362 592Q355 592 355 581V425Q375 419 420 408Q534 382 586 345Q647 281 647 215Q647 196 642 177ZM297 437V581Q297 594 284 594Q263 594 236 566Q215
545 221 496Q229 473 252 455T297 437ZM410 261Q376 288 357 288V39Q387 39 413 61Q460 101 460 160Q460 222 410 261Z" />
<glyph unicode="%" glyph-name="percent" horiz-adv-x="670" d="M319 527Q319 461 275 412T167 362Q102 362 57 410T11 526Q11 593 56 641T166 690Q230 690 274 642T319 527ZM545 656Q545 653 541 646L137 -7Q133 -15 128 -15Q123 -15 120 -12L93 7Q87 11 87 15Q87
18 93 28L494 675Q498 683 502 683Q506 683 511 680L541 663Q545 661 545 656ZM637 167Q637 101 593 52T485 2Q420 2 375 50T329 166Q329 233 374 281T484 330Q548 330 592 282T637 167ZM223 528Q223 576 212 629Q203 673 166 673Q128 673 118 621Q112 589 112
528Q112 458 120 426Q131 382 166 382Q203 382 212 426Q223 478 223 528ZM541 168Q541 216 530 269Q521 313 484 313Q446 313 436 261Q430 229 430 168Q430 98 438 66Q449 22 484 22Q521 22 530 66Q541 118 541 168Z" />
<glyph unicode="&amp;" glyph-name="ampersand" horiz-adv-x="739" d="M700 272Q633 105 541 58Q445 -5 322 -5Q270 -5 222 8Q89 42 45 149Q34 176 34 205Q34 270 84 323Q105 345 140 367Q169 385 199 403Q196 417 173 448Q152 475 151 495Q144 602 220 661Q271
700 347 700Q390 700 426 686Q466 665 490 621Q499 604 499 584Q499 552 480 533Q454 516 410 475Q494 400 494 331Q494 287 463 249T388 207Q383 215 385 233T385 260Q365 295 321 328Q283 355 245 381Q202 361 192 297Q196 264 221 236T278 195Q339 173 427 173Q531
173 591 220Q614 238 614 259Q614 265 612 270Q607 280 556 336Q520 377 520 408Q520 429 534 450Q579 497 664 519Q669 516 669 510Q669 500 644 475Q706 379 706 316Q706 294 700 272ZM400 557Q400 604 377 627T318 639Q287 625 287 595Q287 568 317 542Q343
523 370 504Q400 521 400 557Z" />
<glyph unicode="&apos;" glyph-name="quotesingle" horiz-adv-x="250" d="M159 493H93L67 768H182L159 493Z" />
<glyph unicode="(" glyph-name="parenleft" horiz-adv-x="327" d="M297 -158Q297 -162 290 -167T277 -173Q268 -173 258 -165Q166 -92 103 16Q34 133 34 287Q34 432 111 563Q168 661 259 739Q268 747 277 747Q283 747 290 742T297 733Q297 725 289 715Q163 563
163 287Q163 161 196 47T289 -140Q297 -150 297 -158Z" />
<glyph unicode=")" glyph-name="parenright" horiz-adv-x="327" d="M293 288Q293 142 216 11Q159 -87 68 -165Q59 -173 50 -173Q44 -173 37 -168T30 -159Q30 -151 38 -141Q164 16 164 288Q164 413 131 527T38 714Q30 724 30 732Q30 736 37 741T50 747Q59 747 69
739Q161 666 224 558Q293 441 293 288Z" />
<glyph unicode="*" glyph-name="asterisk" horiz-adv-x="350" d="M166 536Q165 618 125 620Q174 653 174 678Q174 653 226 620Q215 619 206 611Q186 591 185 537Q237 569 237 601Q237 609 233 615Q272 596 296 596Q305 596 311 599Q290 587 286 528Q278 542 257
542Q231 542 193 520Q232 497 257 497Q278 497 286 511Q287 493 289 479Q296 445 310 437Q304 441 293 441Q270 441 234 424Q238 430 238 438Q238 468 185 501Q187 421 226 419Q174 386 174 361Q174 386 125 419Q136 420 145 428Q165 448 166 503Q111 469 111 439Q111
430 115 425Q79 442 56 442Q45 442 39 438Q60 450 63 511Q70 498 90 498Q116 498 155 521Q118 541 93 541Q71 541 62 527Q61 544 59 558Q52 590 38 599Q44 595 54 595Q78 595 115 614Q112 609 112 601Q112 570 166 536Z" />
<glyph unicode="+" glyph-name="plus" horiz-adv-x="450" d="M269 364H392V270H269V147H175V270H52V364H175V487H269V364Z" />
<glyph unicode="," glyph-name="comma" horiz-adv-x="250" d="M214 64T214 34Q214 -39 177 -85Q100 -180 24 -172Q122 -79 122 -24Q122 -6 111 -6Q77 -3 54 23T30 83Q30 120 56 145T119 171Q151 171 175 150T207 96Z" />
<glyph unicode="-" glyph-name="hyphen" horiz-adv-x="400" d="M339 265H47V369H339V265Z" />
<glyph unicode="." glyph-name="period" horiz-adv-x="250" d="M207 83Q207 46 182 20T119 -6Q82 -6 56 20T30 83Q30 120 56 145T119 171Q155 171 181 145T207 83Z" />
<glyph unicode="/" glyph-name="slash" horiz-adv-x="466" d="M462 656Q462 653 458 646L54 -7Q50 -15 45 -15Q40 -15 37 -12L10 7Q4 11 4 15Q4 18 10 28L411 675Q415 683 419 683Q423 683 428 680L458 663Q462 661 462 656Z" />
<glyph unicode="0" glyph-name="zero" horiz-adv-x="669" d="M648 317Q648 184 560 87T343 -11Q213 -12 122 86Q33 181 32 315Q31 449 121 547T341 644Q471 643 559 547T648 317ZM456 320Q456 417 434 522Q415 610 342 610Q272 610 250 522Q234 457 234 320Q234
181 250 116Q272 28 342 28Q415 28 434 116Q456 221 456 320Z" />
<glyph unicode="1" glyph-name="one" horiz-adv-x="333" d="M318 -3Q283 -3 205 -3Q127 -2 88 -2Q87 5 97 15T108 31Q109 66 109 468Q99 471 83 462Q64 452 57 451Q27 448 15 468V472Q108 523 145 622Q164 622 214 622Q264 621 288 621L289 62Q289 40 318 -3Z" />
<glyph unicode="2" glyph-name="two" horiz-adv-x="588" d="M553 388Q519 329 453 291Q413 267 324 236T195 182Q108 132 85 80Q85 81 91 75Q158 113 264 126Q357 133 450 139Q524 163 535 206Q538 208 540 208Q541 208 551 195Q564 171 564 138Q564 104 550 76Q510
-3 394 -3Q368 -3 319 1T251 6T191 8T127 11Q69 11 30 -2Q25 6 32 35Q49 104 106 167Q141 206 224 272T340 374Q378 430 378 497Q378 535 363 565Q344 603 297 616Q283 618 271 618Q224 618 196 586Q176 563 176 527Q176 500 188 476Q210 444 242 444Q243 434 216
401Q189 379 148 379Q127 379 108 385Q68 397 49 441Q39 464 39 490Q39 527 58 552Q113 643 283 653Q291 649 307 650T330 649Q483 634 545 542Q567 509 567 461Q567 423 553 388Z" />
<glyph unicode="3" glyph-name="three" horiz-adv-x="601" d="M563 244Q575 216 575 186Q575 114 520 70Q431 -2 287 -2Q186 -2 101 35Q69 58 56 70Q33 92 29 116Q27 128 27 140Q27 177 46 203Q83 244 136 244Q170 244 198 226T238 175Q240 168 234 158Q228 162
221 162Q220 162 192 153Q175 143 169 107Q180 53 209 44Q232 30 265 30Q306 30 334 50Q384 93 384 172Q384 204 376 235Q366 271 334 299T264 334Q249 340 220 343Q187 346 176 349Q222 369 269 390Q324 416 351 452Q369 476 369 514Q369 550 353 576Q329 615
264 615Q197 615 173 563Q170 556 170 548Q170 534 180 513Q184 502 203 498T222 487Q222 484 220 480Q194 424 136 426Q65 428 51 480Q43 492 43 509Q43 528 55 560Q93 612 164 631Q199 640 298 648Q398 644 438 633Q512 613 545 554Q554 538 554 518Q554 486
534 455Q504 418 453 397Q429 387 358 369Q355 367 355 365Q355 359 368 358Q520 347 563 244Z" />
<glyph unicode="4" glyph-name="four" horiz-adv-x="656" d="M626 249Q623 218 620 187Q612 152 585 140Q570 130 542 131Q508 132 497 129Q497 59 498 51Q506 23 525 -1Q490 -1 416 -1Q341 0 304 0Q319 15 326 48V127Q30 127 30 127Q30 138 40 155Q54 176 56
183Q82 231 124 336T194 492Q240 575 302 627Q339 627 414 628Q490 628 526 628Q526 623 519 618T510 606Q499 583 499 555Q499 555 499 217Q535 213 548 213Q584 213 606 228Q608 230 616 241Q621 249 626 249ZM323 237V560Q326 565 324 572Q322 579 316 578Q262
534 221 456Q210 435 161 317Q158 307 139 266Q124 235 123 214Q155 214 218 214Q281 213 312 213Q327 217 323 237Z" />
<glyph unicode="5" glyph-name="five" horiz-adv-x="598" d="M561 160Q536 81 457 38Q386 -1 296 -1Q107 -1 44 88Q27 117 27 148Q27 203 80 232Q102 247 135 247Q159 247 178 239Q226 219 235 182Q192 180 175 147Q163 124 170 82Q192 39 235 33Q288 26 316 45Q380
88 380 188Q380 228 369 271Q360 308 329 336T258 376Q232 380 210 380Q128 380 74 330Q73 338 73 348Q73 364 78 393Q83 426 84 440Q88 508 96 639Q104 640 113 640Q128 640 155 636T196 631Q423 625 531 643Q533 627 533 613Q533 550 499 517Q464 492 406 492Q378
492 321 500Q234 513 138 578Q131 580 130 574T127 563Q126 544 120 500T114 431Q114 412 117 395Q214 431 311 431Q439 431 512 365Q571 311 571 226Q571 193 561 160Z" />
<glyph unicode="6" glyph-name="six" horiz-adv-x="635" d="M596 293Q605 261 605 229Q605 131 535 69Q454 -3 331 -3Q255 -3 186 27Q130 52 89 109Q52 162 39 226Q29 274 29 325Q29 417 61 484Q101 568 188 611Q264 649 365 649Q509 649 561 567Q567 558 567
547Q567 541 557 505Q527 461 460 463Q396 474 367 502Q378 519 391 556Q388 590 355 606Q343 614 326 614Q308 614 276 603Q234 563 223 488Q222 479 216 355Q216 355 220 351Q301 430 402 430Q422 430 442 427Q493 419 538 381T596 293ZM407 87Q422 130 422 180Q422
253 393 315Q376 352 317 361Q290 360 266 342T233 297Q216 249 216 197Q216 92 280 38Q311 23 351 33Q379 40 407 87Z" />
<glyph unicode="7" glyph-name="seven" horiz-adv-x="524" d="M499 613Q493 599 488 576Q481 546 479 538Q465 491 371 316Q293 171 293 105Q293 46 322 4Q320 1 320 1Q276 1 192 1Q107 0 69 0Q77 142 231 302Q288 356 344 410Q410 474 436 531Q417 523 378 508Q256
461 160 461Q128 461 98 466Q59 473 43 502Q18 553 26 624Q99 608 194 608Q190 608 451 621Q457 619 472 624T492 630Q502 630 499 613Z" />
<glyph unicode="8" glyph-name="eight" horiz-adv-x="630" d="M599 228Q601 212 601 197Q601 88 517 42Q430 -6 320 -6Q197 -6 95 52Q29 100 29 183Q39 261 124 311Q118 324 93 345T62 384Q42 418 42 462Q42 497 56 522Q107 640 318 648Q419 640 469 621Q549 591
571 521Q573 511 573 501Q573 436 508 394Q507 393 490 383Q479 376 480 365Q524 345 556 311Q593 272 599 228ZM486 462T486 491Q486 538 463 564Q418 615 331 615Q298 615 261 607Q213 591 203 539Q201 495 222 475Q261 445 327 422Q384 403 440 384Q471 408
478 435ZM451 125Q451 153 422 185Q369 219 295 248Q272 256 162 294Q143 282 134 257Q129 234 124 211Q122 109 189 64Q239 30 311 30Q357 30 398 45Q451 76 451 125Z" />
<glyph unicode="9" glyph-name="nine" horiz-adv-x="640" d="M562 511Q610 428 610 318Q610 200 554 118Q471 -4 283 -4Q230 -4 173 6Q71 44 71 106Q71 136 94 154Q123 176 162 176Q211 176 263 144Q268 139 268 135Q268 132 259 126T249 113Q245 103 245 92Q245
72 256 53Q286 20 321 24Q370 23 400 86Q426 160 418 286Q409 284 394 269T371 251Q318 212 244 212Q182 212 130 239Q85 262 58 305T31 396Q31 522 111 587Q186 647 303 647Q401 647 473 601Q533 562 562 511ZM397 327Q420 379 420 440Q420 527 375 585Q358 607
310 611Q258 608 234 562Q214 509 214 450Q214 350 271 290Q296 277 312 277Q320 277 327 279Q373 285 397 327Z" />
<glyph unicode=":" glyph-name="colon" horiz-adv-x="250" d="M207 449Q207 412 182 386T119 360Q82 360 56 386T30 449Q30 486 56 511T119 537Q155 537 181 511T207 449ZM207 83Q207 46 182 20T119 -6Q82 -6 56 20T30 83Q30 120 56 145T119 171Q155 171 181 145T207 83Z" />
<glyph unicode=";" glyph-name="semicolon" horiz-adv-x="250" d="M207 449Q207 412 182 386T119 360Q82 360 56 386T30 449Q30 486 56 511T119 537Q155 537 181 511T207 449ZM214 64T214 34Q214 -39 177 -85Q100 -180 24 -172Q122 -79 122 -24Q122 -6 111 -6Q77
-3 54 23T30 83Q30 120 56 145T119 171Q151 171 175 150T207 96Z" />
<glyph unicode="&lt;" glyph-name="less" horiz-adv-x="500" d="M390 110L83 293V338L390 520V437L182 320V316L390 195V110Z" />
<glyph unicode="=" glyph-name="equal" horiz-adv-x="450" d="M392 348H52V442H392V348ZM392 182H52V276H392V182Z" />
<glyph unicode="&gt;" glyph-name="greater" horiz-adv-x="500" d="M417 292L110 110V193L318 310V314L110 435V520L417 337V292Z" />
<glyph unicode="?" glyph-name="question" horiz-adv-x="660" d="M621 587Q630 564 630 538Q630 462 559 396Q534 373 467 337T375 276Q333 236 333 182Q303 212 303 266Q303 303 319 323Q390 415 400 431Q441 496 441 551Q441 585 426 619Q402 672 323 672Q279
672 247 628Q221 586 196 545Q163 501 117 501Q51 501 34 543Q29 555 29 568Q29 588 41 603Q136 724 322 724Q566 724 621 587ZM407 74Q407 37 382 12T319 -14Q282 -14 257 11T231 74Q231 111 256 136T319 162Q356 162 381 137T407 74Z" />
<glyph unicode="@" glyph-name="at" horiz-adv-x="800" d="M463 371Q464 376 458 379Q432 366 380 334Q349 312 335 273Q322 239 326 206Q329 179 353 179Q397 179 424 230Q429 250 463 371ZM716 410Q716 508 639 576T457 645Q322 645 213 539T103 296Q103 187
187 116T410 45Q517 45 669 134L695 111Q512 0 403 0Q244 0 143 87Q46 169 46 290Q46 450 158 569Q274 691 440 691Q575 691 666 610T757 406Q757 295 682 209T510 123Q449 123 432 127Q406 133 406 155Q406 160 408 168Q361 128 292 128Q267 128 243 133Q215 139
198 165Q183 188 183 219Q191 277 252 326Q286 348 363 372Q437 396 473 421Q487 448 483 485Q469 503 451 503Q418 503 407 479Q401 471 401 459Q402 443 401 441Q374 418 338 418Q316 418 298 427Q269 450 269 489Q269 507 276 524Q289 523 304 523Q333 523 393
529T482 535Q538 535 574 519Q617 493 617 470Q617 465 615 459L541 182Q589 179 647 239Q716 310 716 410Z" />
<glyph unicode="A" glyph-name="A" horiz-adv-x="710" d="M684 0H424Q450 24 450 60Q450 82 440 114Q432 139 424 164Q424 164 417 171Q386 141 329 141Q304 141 215 157Q182 163 165 128Q157 111 157 90Q157 56 175 22Q183 15 196 0H33Q85 59 102 112Q204 429
279 671Q281 675 287 676Q287 676 453 676Q461 676 464 658L655 48Q656 38 668 23Q682 5 684 0ZM398 245Q341 454 298 571Q273 512 243 408Q206 282 192 243Q192 240 190 229Q188 221 190 215Q216 229 250 229Q268 229 312 223Q352 217 374 218Q400 227 400 238Q400
241 398 245Z" />
<glyph unicode="B" glyph-name="B" horiz-adv-x="765" d="M716 302Q732 265 732 223Q732 133 669 67Q618 13 518 -1H30Q68 28 68 87Q68 102 65 120Q65 203 64 361T63 605Q63 639 33 672Q30 673 34 677Q512 677 571 676Q609 665 624 657Q652 642 660 616Q673 575
657 547Q619 509 536 487Q436 461 408 445V441Q429 443 450 443Q654 443 716 302ZM418 600Q404 624 374 632Q359 637 318 640Q309 636 297 636Q292 636 283 637T270 638Q256 638 246 630Q245 593 250 527Q255 452 255 420Q257 419 257 415T261 412Q298 436 334
460Q378 488 405 513Q423 530 423 563Q423 581 418 600ZM499 313Q477 355 412 380Q388 387 363 387Q296 387 255 347Q255 246 254 48Q256 47 255 42T258 37Q346 37 382 44Q450 56 484 99Q524 149 524 216Q524 268 499 313Z" />
<glyph unicode="C" glyph-name="C" horiz-adv-x="690" d="M660 668Q666 592 599 540Q568 516 522 516Q490 516 462 529Q451 534 432 551Q445 590 429 615Q406 650 359 650Q346 650 333 647Q248 617 238 470Q232 381 232 330Q232 166 288 71Q329 16 419 7Q504 12
542 70Q574 118 574 181Q574 232 552 272Q548 283 532 295T512 315Q522 317 531 317Q590 317 634 254Q655 223 655 179Q655 145 642 114Q609 38 528 2Q457 -29 365 -26Q276 -23 200 21Q120 66 77 144Q30 228 30 336Q30 484 113 578Q215 693 369 687Q407 686 493
675Q571 666 615 666Q638 666 660 668Z" />
<glyph unicode="D" glyph-name="D" horiz-adv-x="740" d="M665 146Q632 84 573 44T445 -4Q377 -3 41 -3Q69 29 69 106L70 582Q70 638 34 668Q33 671 36 671Q86 671 191 672Q297 672 343 672Q529 672 617 569T706 318Q706 223 665 146ZM484 165Q503 250 503 331Q503
476 441 568Q398 631 300 631Q282 631 261 629Q261 628 259 628T257 626V56Q258 48 263 32Q331 23 375 39Q414 53 444 89T484 165Z" />
<glyph unicode="E" glyph-name="E" horiz-adv-x="690" d="M663 248Q654 178 634 -2L30 -1Q55 27 60 74Q59 178 60 344Q61 552 61 609Q57 642 32 668Q32 682 45 676H602Q611 638 628 484Q478 640 299 640Q276 640 252 637V388Q252 385 254 385Q298 440 382 440Q408
440 473 432Q531 425 560 427Q579 428 610 457Q609 407 571 372T482 337Q458 337 409 347T337 357Q279 357 249 306V39Q260 31 284 33Q314 35 321 33Q420 42 512 106Q596 164 660 255Q664 251 663 248Z" />
<glyph unicode="F" glyph-name="F" horiz-adv-x="650" d="M623 488Q622 488 620 489T615 490Q449 645 250 638Q250 605 249 521T248 394H250Q290 446 375 446Q406 446 455 439Q518 430 529 429Q578 432 610 463Q610 396 545 358Q511 338 465 338Q441 338 392 345T318
353Q299 353 283 350Q246 332 246 278V85Q246 42 282 1Q279 -3 272 -3Q230 -3 150 -2T29 0Q38 20 47 40Q57 65 57 87L56 623Q54 634 45 650Q32 670 30 674H601Q610 613 623 488Z" />
<glyph unicode="G" glyph-name="G" horiz-adv-x="710" d="M696 387Q689 379 678 363Q673 356 672 343Q671 327 668 322Q669 296 670 261V119Q670 75 672 42Q674 32 683 16T694 -8Q541 -1 285 -1Q204 -1 133 77Q69 147 47 239Q34 294 34 350Q34 484 106 572Q196
682 389 682Q409 682 593 669Q629 666 679 670Q681 663 681 656Q681 659 671 610Q640 534 556 515Q478 513 447 546Q457 596 430 620T366 644Q346 644 330 636Q237 579 237 412Q237 380 240 329Q244 264 245 250Q266 92 371 39Q393 28 426 27Q428 27 485 28Q489
29 489 33T490 39Q490 270 481 352Q480 357 462 385Q514 385 617 388Q617 387 619 387T621 385Q666 392 696 387Z" />
<glyph unicode="H" glyph-name="H" horiz-adv-x="700" d="M673 -3H429Q429 5 440 19T451 41V426Q424 406 383 406Q367 406 333 410T281 415Q262 415 246 411Q244 410 241 407T235 401V66Q243 20 262 1Q260 -3 258 -2Q258 -2 20 -2Q47 33 47 60V613Q42 637 40 645Q34
661 22 670Q20 672 19 677H257Q256 669 248 663T238 652V466Q244 464 254 471T268 479Q290 489 320 489Q335 489 365 486T409 483Q435 483 454 490V610Q454 625 443 644Q431 667 429 674H667Q639 643 639 586L640 94Q640 36 673 -3Z" />
<glyph unicode="I" glyph-name="I" horiz-adv-x="300" d="M269 0H31Q56 36 56 100V631Q56 642 47 656Q40 666 33 677H262Q264 675 264 671Q243 652 236 616V78Q236 35 269 0Z" />
<glyph unicode="J" glyph-name="J" horiz-adv-x="580" d="M562 675Q539 650 539 626V131Q539 86 502 44Q458 5 376 -1Q306 -1 237 -2Q170 5 132 19Q78 39 49 84Q27 117 27 152Q27 189 67 266Q105 340 102 384Q100 388 89 394T79 409Q96 419 118 419Q152 419 180
399Q229 363 229 300Q229 269 212 202T196 103Q197 67 237 42Q263 29 315 39Q352 64 359 111L360 621Q360 646 333 673Q333 675 336 675T339 676Q536 676 562 675Z" />
<glyph unicode="K" glyph-name="K" horiz-adv-x="730" d="M702 68Q706 49 672 19Q630 -11 571 -11Q534 -11 505 2Q455 23 431 75Q417 107 404 179T377 283Q366 323 337 352Q305 382 266 387Q253 383 249 374Q247 147 248 76Q248 43 283 -1Q244 -1 159 0T35 1Q67
25 67 72L66 607Q66 636 33 669V675Q74 675 153 676Q232 676 273 676Q257 662 254 640T248 595Q246 540 251 432Q261 421 281 431Q338 448 379 518Q412 576 445 634Q489 693 561 694Q652 696 683 652Q677 653 671 653Q645 653 616 630Q542 515 534 507Q479 439
414 425Q403 423 392 421T375 412Q387 404 408 397Q426 392 443 387Q520 359 571 272Q593 233 638 113Q665 67 702 68Z" />
<glyph unicode="L" glyph-name="L" horiz-adv-x="610" d="M590 132Q589 93 561 59T495 13T370 1Q310 1 200 0T35 -2Q36 5 43 19T53 41L54 599Q54 641 24 674H258Q234 639 234 599L233 43Q233 38 247 32Q291 34 335 36Q386 44 406 81Q419 105 419 133Q419 164 396
224T372 313Q372 354 404 388T491 422Q514 422 534 414Q535 412 539 410T543 405Q510 399 504 374Q504 334 548 267T593 159Q593 146 590 132Z" />
<glyph unicode="M" glyph-name="M" horiz-adv-x="830" d="M803 -2Q803 -2 570 -2Q569 4 577 11T585 23Q585 23 591 71Q582 131 566 299Q553 443 537 525Q532 525 531 524Q448 230 387 -1Q372 -1 348 -2Q324 -2 313 -2Q263 179 155 538Q152 538 151 534T148 529Q137
397 116 133Q120 41 158 3V-2H20Q69 49 76 126Q98 375 109 602Q107 620 106 638Q103 660 90 671Q89 673 93 674T98 676Q134 676 202 676Q270 675 304 675Q340 541 415 279Q419 269 425 286Q439 351 474 479Q510 611 523 671Q523 673 525 673T529 675Q562 675 629
676Q696 676 728 676Q707 648 707 607Q727 422 769 59Q781 21 803 -2Z" />
<glyph unicode="N" glyph-name="N" horiz-adv-x="630" d="M606 676Q568 615 568 582V0H479Q457 84 384 169Q370 185 241 312Q153 399 116 467Q107 478 107 468V64Q107 49 119 32T143 0H26Q59 45 59 65V612Q59 631 34 676H225Q245 610 304 538Q323 515 416 416Q487
341 519 288V581Q519 622 473 676H606Z" />
<glyph unicode="O" glyph-name="O" horiz-adv-x="740" d="M705 332Q705 188 609 83T372 -24Q231 -25 132 80T32 330Q31 475 129 581T369 687Q510 687 607 582T705 332ZM501 342Q501 416 486 534Q480 584 448 617T369 651Q323 651 292 618T252 534Q238 459 238
342Q238 190 252 123Q277 5 372 6Q457 7 486 126Q501 186 501 342Z" />
<glyph unicode="P" glyph-name="P" horiz-adv-x="680" d="M648 558Q648 462 615 429Q577 398 481 368Q337 323 326 318Q248 287 234 246Q234 218 234 154Q233 91 233 62Q240 23 258 -3H23Q25 1 38 26Q48 45 48 58V612Q48 645 23 675H518Q563 675 605 638T648 558ZM420
584Q399 628 341 638Q339 638 237 641Q237 640 234 636Q233 531 233 326Q239 318 243 318Q247 321 331 380Q385 417 410 457Q430 490 430 534Q430 563 420 584Z" />
<glyph unicode="Q" glyph-name="Q" horiz-adv-x="740" d="M705 332Q705 206 630 108T438 -17V-18Q435 -21 435 -25Q435 -31 457 -38Q463 -39 506 -52Q536 -61 556 -61Q578 -61 596 -51Q583 -101 542 -122Q497 -145 433 -145Q392 -145 351 -135Q345 -133 342 -115Q337
-92 335 -87Q316 -58 288 -58Q243 -53 212 -107Q205 -106 198 -104Q188 -102 188 -97Q188 -93 191 -89Q205 -60 233 -40T290 -18L303 -17Q186 8 110 106T32 330Q31 475 129 581T369 687Q510 687 607 582T705 332ZM501 342Q501 416 486 534Q480 584 448 617T369
651Q323 651 292 618T252 534Q238 459 238 342Q238 190 252 123Q277 5 372 6Q457 7 486 126Q501 186 501 342Z" />
<glyph unicode="R" glyph-name="R" horiz-adv-x="720" d="M702 43Q658 -18 565 -18Q544 -18 522 -15Q452 5 429 80Q415 149 401 218Q379 297 314 321Q293 325 270 319Q243 313 243 298V87Q243 30 269 -4H31Q32 0 46 39Q56 66 56 86L55 629Q55 640 46 654Q34 672
33 675H558Q603 675 637 639T671 557Q671 507 641 473Q608 436 554 418Q525 408 453 396Q387 385 353 371Q350 368 355 368Q511 366 586 246Q606 221 630 143Q650 74 685 47Q692 49 702 43ZM454 599Q423 640 362 640H241V377Q241 362 249 367Q268 381 347 425Q408
459 439 493Q463 519 463 561Q463 583 454 599Z" />
<glyph unicode="S" glyph-name="S" horiz-adv-x="670" d="M641 259Q644 237 644 216Q644 79 536 16Q524 8 487 -6Q451 -15 413 -15Q362 -15 275 6Q180 28 139 31Q112 28 100 24Q80 16 71 -1Q70 -7 62 -13Q31 13 31 60Q31 77 35 92Q59 149 112 161Q131 165 149
165Q208 165 282 111Q382 39 407 28Q465 19 498 41Q540 70 540 120Q540 153 516 183Q494 209 461 223Q422 239 297 265Q188 287 138 318Q63 364 50 457Q48 471 48 486Q48 540 76 586T152 659Q213 691 301 691Q339 691 417 683T535 675Q573 675 604 680Q606 670
606 660Q606 606 568 567T476 528Q429 528 392 551Q394 604 382 621Q371 631 352 640Q337 647 321 655Q208 662 175 604Q168 591 168 576Q168 546 191 518Q240 479 326 460Q400 445 473 430Q533 413 581 367Q632 317 641 259Z" />
<glyph unicode="T" glyph-name="T" horiz-adv-x="650" d="M619 427Q571 513 539 552Q483 621 420 637Q417 637 417 629V57Q417 44 428 27Q442 5 444 -2H210Q232 40 232 70Q232 70 232 633Q225 636 217 636Q206 636 162 609Q87 548 32 431H30Q34 512 34 677H608Q610
638 613 552T619 427Z" />
<glyph unicode="U" glyph-name="U" horiz-adv-x="650" d="M629 675Q622 668 610 651T592 604Q592 528 591 384T590 164T528 39Q454 -10 343 -10Q258 -10 175 18Q54 73 54 127L55 628Q52 646 30 674Q269 674 269 674Q243 644 238 617Q238 546 237 397T236 176Q256
89 308 57Q351 37 398 37Q461 37 503 71Q530 93 537 130Q540 147 540 203L541 606Q535 641 502 673Q503 675 505 675Q505 675 629 675Z" />
<glyph unicode="V" glyph-name="V" horiz-adv-x="690" d="M651 592T651 524Q651 428 565 277Q534 223 504 170Q465 95 465 57Q465 42 484 -5Q445 -5 369 -5Q292 -4 254 -4Q269 12 269 34Q269 51 258 79Q243 116 241 124Q210 207 158 366Q103 538 77 609Q72 623
55 645Q35 670 31 677Q73 677 154 676T276 675Q260 644 260 627Q260 619 262 612Q324 426 342 373Q390 234 430 136Q473 219 506 342Q520 393 520 443Q520 547 461 594Q437 613 403 613Q388 613 376 609Q375 613 375 617Q375 628 395 654Q432 693 492 693Q571 693
611 643Z" />
<glyph unicode="W" glyph-name="W" horiz-adv-x="970" d="M919 603Q935 555 935 506Q935 436 901 352Q887 319 829 206Q783 117 767 60Q766 34 785 4Q785 2 782 1Q742 1 667 2T553 3Q573 38 566 73Q545 154 492 312Q488 313 486 309T482 302Q458 227 411 76Q408
67 408 57Q408 31 428 1H197Q209 23 209 53Q209 78 201 103Q175 186 128 361T54 621Q45 641 17 675H267Q247 653 247 619Q247 605 251 591Q326 301 380 122Q383 122 386 126T391 132Q401 173 432 270Q460 357 470 408Q463 425 435 547Q415 635 374 675H609Q591
653 591 622Q591 609 595 597Q638 434 732 114H737Q761 187 784 260Q811 350 811 416Q811 495 774 556Q750 595 695 597Q690 599 681 594T668 588Q664 588 661 593Q669 645 717 676Q744 693 781 693Q826 693 864 669Q892 651 919 603Z" />
<glyph unicode="X" glyph-name="X" horiz-adv-x="710" d="M692 -1H427Q435 12 435 28Q435 49 412 93Q393 120 352 191Q315 255 289 289Q275 286 263 272T239 244Q211 189 211 126Q211 68 238 29Q247 20 260 -3H34Q33 7 33 17Q33 80 80 154Q142 252 260 321Q265
326 265 332Q265 340 254 356Q240 376 160 516Q102 617 54 670V675H307Q299 662 299 643Q299 622 309 606Q349 539 426 414Q454 423 476 452Q495 478 501 509Q505 562 484 591Q472 607 447 607Q435 607 422 603Q419 611 419 618Q419 636 438 660Q472 692 523 692Q545
692 566 685Q599 675 624 635Q631 617 631 596Q631 539 584 478Q512 410 459 386Q443 374 459 356Q470 339 567 176Q630 68 692 4V-1Z" />
<glyph unicode="Y" glyph-name="Y" horiz-adv-x="680" d="M637 635Q649 611 649 583Q649 517 593 445Q571 417 454 292V39Q454 33 473 15Q489 0 484 0H249Q247 0 247 1Q247 4 259 19T272 39V291Q155 484 89 603Q71 636 24 676H290Q277 659 277 640Q277 627 283
616Q388 430 442 348Q462 355 490 392Q530 445 530 512Q530 537 523 558T499 597T462 614Q454 614 441 610T421 606Q422 631 443 654T490 689Q510 695 531 695Q608 695 637 635Z" />
<glyph unicode="Z" glyph-name="Z" horiz-adv-x="700" d="M662 204Q671 179 671 156Q671 114 642 70T552 10Q512 0 439 0H32Q158 210 407 626Q412 641 399 643Q231 633 102 466Q107 538 120 676H645L273 59Q266 39 280 39H374Q480 39 505 113Q520 156 520 167Q520
182 512 197Q490 242 457 247Q479 281 547 280Q584 280 617 260T662 204Z" />
<glyph unicode="[" glyph-name="bracketleft" horiz-adv-x="350" d="M320 -165Q320 -173 311 -173H90Q79 -173 79 -162V738Q79 747 89 747H304Q310 747 310 741V717Q310 709 302 709H202Q192 709 192 698V-121Q192 -135 199 -135H312Q320 -135 320 -144V-165Z" />
<glyph unicode="\" glyph-name="backslash" horiz-adv-x="375" d="M367 24Q372 11 365 10L311 -12Q305 -14 299 0L8 698Q5 709 12 712L64 733Q71 736 74 728L367 24Z" />
<glyph unicode="]" glyph-name="bracketright" horiz-adv-x="350" d="M271 -162Q271 -173 260 -173H39Q30 -173 30 -165V-144Q30 -135 38 -135H152Q158 -135 158 -123V698Q158 709 149 709H48Q40 709 40 717V741Q40 747 46 747H261Q271 747 271 738V-162Z" />
<glyph unicode="^" glyph-name="asciicircum" horiz-adv-x="375" d="M365 363H299L189 585H185L74 363H11L170 676H206L365 363Z" />
<glyph unicode="_" glyph-name="underscore" horiz-adv-x="500" d="M500 -127H0V-75H500V-127Z" />
<glyph unicode="`" glyph-name="grave" horiz-adv-x="316" d="M231 548H193L56 634Q15 660 15 675Q15 710 45 710Q77 710 100 680L231 548Z" />
<glyph unicode="a" glyph-name="a" horiz-adv-x="560" d="M523 -1Q368 -1 347 0Q342 3 341 11Q341 18 341 25Q340 33 334 36Q284 -19 195 -19Q164 -19 133 -12Q95 -3 66 28T26 100Q25 110 25 120Q25 187 79 237Q117 266 205 298T332 361Q335 372 335 385Q335 417
321 445Q299 467 275 467Q267 467 260 465Q229 452 226 436Q224 430 224 424Q224 417 228 405T232 387Q203 358 157 358Q129 358 103 370Q40 410 40 479Q40 487 41 495Q59 493 80 493Q117 493 192 500T305 508Q376 508 429 488Q466 469 477 460Q503 439 503 411L504
51Q504 43 516 25T528 3Q528 -1 523 -1ZM336 297Q336 310 328 306Q298 289 241 249Q204 216 204 153Q204 117 216 83T260 48Q292 48 316 75Q330 90 335 113Q335 141 336 206Q336 271 336 297Z" />
<glyph unicode="b" glyph-name="b" horiz-adv-x="568" d="M517 387Q542 325 542 255Q542 121 460 47Q399 -8 294 -2Q294 -2 28 -2Q48 30 48 51L47 595Q42 629 40 639Q33 664 21 676H216Q216 637 216 560Q215 484 215 450Q273 505 347 505Q369 505 390 500Q431
490 465 459T517 387ZM361 189Q360 206 359 231V274Q359 375 326 421Q307 433 289 433Q241 432 218 372Q217 268 217 39Q250 31 286 43Q357 67 361 189Z" />
<glyph unicode="c" glyph-name="c" horiz-adv-x="530" d="M504 101Q485 33 392 -3Q343 -17 294 -17Q160 -17 83 71Q25 137 25 244Q25 305 45 362Q62 408 100 447T185 499Q224 510 276 510Q305 510 365 505T454 500Q474 500 491 502Q500 484 494 454Q483 398 415
373Q400 369 385 369Q348 369 315 390Q330 424 319 448Q304 469 283 470Q248 472 226 440Q201 382 201 286Q201 250 206 172Q215 39 302 22Q314 20 327 20Q363 20 389 39Q432 79 432 140Q432 164 425 186Q425 193 413 202T401 215Q401 227 434 227Q460 227 483
209Q510 182 510 140Q510 121 504 101Z" />
<glyph unicode="d" glyph-name="d" horiz-adv-x="570" d="M547 0H189Q145 0 103 41Q66 77 48 127Q25 191 25 262Q25 388 93 455Q145 507 215 507Q238 507 260 500Q312 484 338 457Q341 454 343 454Q348 454 348 484V624Q348 646 322 676H518V62Q518 35 547 0ZM352
48Q353 93 351 177Q348 271 348 309Q348 385 322 416Q303 439 272 439Q257 439 246 432Q216 413 210 368Q208 329 206 289Q209 217 213 145Q224 59 289 37Q309 30 326 30Q352 30 352 48Z" />
<glyph unicode="e" glyph-name="e" horiz-adv-x="570" d="M543 247L216 248Q216 149 233 100Q261 21 339 21Q392 21 424 49T457 132Q457 148 446 166T435 187Q435 194 456 194Q484 194 505 175T527 125Q527 56 456 18Q396 -14 315 -14Q162 -14 87 77Q26 149 26
257Q26 369 90 438Q160 513 285 513Q419 513 486 433Q543 364 543 247ZM353 293Q353 380 346 413Q331 477 282 477Q235 477 223 412Q217 383 217 293H353Z" />
<glyph unicode="f" glyph-name="f" horiz-adv-x="320" d="M298 457H241V54Q241 36 269 0H57Q57 7 67 22T78 47V459H17Q10 459 10 484Q10 508 17 508H71Q73 514 73 521Q73 530 69 551T64 584Q65 625 94 660T164 696Q179 696 209 690T255 684Q275 684 290 691Q295
669 295 649Q295 609 277 586T228 562Q210 560 185 575T146 590Q134 590 124 581T114 559Q114 537 139 522Q161 508 187 507Q187 507 298 507Q309 507 309 481Q309 457 298 457Z" />
<glyph unicode="g" glyph-name="g" horiz-adv-x="570" d="M545 -28Q543 -79 474 -125Q421 -146 353 -146Q316 -146 242 -138T130 -129Q87 -129 50 -137Q34 -148 27 -148Q26 -139 26 -131Q26 -85 52 -57Q87 -19 147 -19Q160 -19 176 -21Q206 -25 257 -65Q305 -103
336 -103Q347 -103 359 -99T377 -80T387 -51Q387 -27 376 7Q365 35 355 62Q290 6 221 6Q164 6 116 43T48 135Q26 199 26 263Q26 370 84 437Q130 490 208 506Q260 517 359 513Q467 509 507 514Q514 512 528 512Q529 510 529 508Q529 505 522 499T516 487Q512 445
511 391Q511 356 512 291Q514 222 514 193Q511 179 511 164Q511 132 528 69T545 -28ZM347 404Q348 441 348 442Q346 465 331 473Q322 477 300 473Q279 470 266 464Q220 442 214 391Q205 319 205 265Q205 169 232 107Q246 74 280 74Q299 74 317 85T340 112Q350 158
350 228Q350 252 348 316Q346 372 347 404Z" />
<glyph unicode="h" glyph-name="h" horiz-adv-x="570" d="M552 -4Q503 -6 451 -6Q400 -6 350 -4Q366 36 366 104Q366 123 364 169Q362 209 363 231Q360 251 360 330Q361 392 346 428Q330 453 294 448Q246 441 229 394Q223 379 217 336Q218 317 218 38Q218 29 227
14T238 -7Q167 -10 26 -7Q46 27 46 86Q46 82 49 360Q51 527 46 629Q45 655 25 672V679Q57 680 208 680Q211 677 212 661Q212 614 214 521Q215 478 219 450Q254 477 262 482Q289 500 313 505T364 510Q436 510 480 471T524 339Q524 328 523 307T522 274Q522 260 524
232T527 189Q527 64 526 87Q529 28 552 -4Z" />
<glyph unicode="i" glyph-name="i" horiz-adv-x="260" d="M200 608Q200 576 178 553T122 530Q90 530 67 553T44 608Q44 640 67 662T122 685Q154 685 177 663T200 608ZM233 0H27Q46 33 46 57V454Q46 480 21 507H212V57Q212 34 233 0Z" />
<glyph unicode="j" glyph-name="j" horiz-adv-x="250" d="M200 608Q200 576 178 553T122 530Q90 530 67 553T44 608Q44 640 67 662T122 685Q154 685 177 663T200 608ZM215 507L214 -45Q214 -96 177 -120Q149 -137 96 -140Q54 -141 13 -141Q55 -96 55 -46L54 433Q54
487 22 507H215Z" />
<glyph unicode="k" glyph-name="k" horiz-adv-x="600" d="M595 0Q576 -1 356 -1Q353 7 356 41Q352 72 328 111Q309 142 290 174Q257 240 231 267Q225 273 225 265V98Q225 48 251 -1H34Q53 26 53 98V605Q49 622 45 641T28 671Q28 676 31 676H223L224 318Q257 318
274 329Q305 349 327 382T348 449Q345 469 330 508H547Q553 496 553 484Q553 464 532 437Q503 399 500 394Q481 372 398 317Q451 214 555 47Q570 31 595 0Z" />
<glyph unicode="l" glyph-name="l" horiz-adv-x="260" d="M46 628Q46 662 28 679H209L210 57Q210 44 221 27Q235 5 237 -2H24Q46 40 46 70V628Z" />
<glyph unicode="m" glyph-name="m" horiz-adv-x="870" d="M837 -1H635Q634 5 640 22T646 44V403Q638 450 615 461Q603 468 587 468Q562 468 545 453Q523 434 514 391L515 47Q515 23 536 0Q502 0 433 -1Q365 -1 330 -1Q337 15 347 46V403Q346 442 314 460Q288 474
262 460Q208 430 209 344Q209 344 209 57Q209 45 220 27T233 -1H29Q44 22 49 56V448Q49 469 23 508H205Q208 503 208 486Q207 473 215 467Q267 521 350 521Q397 521 437 502Q461 491 497 459Q560 523 651 523Q669 523 687 520Q768 500 793 450Q804 434 808 405Q809
380 811 356V47Q811 35 837 -1Z" />
<glyph unicode="n" glyph-name="n" horiz-adv-x="570" d="M544 -2H340Q352 25 355 56V360Q355 407 349 426Q340 457 307 468Q255 475 227 422Q214 396 214 360V59Q220 22 230 -1H33Q53 34 56 62V442Q56 480 26 508H209Q209 477 220 468Q272 520 358 520Q383 520
408 515Q443 508 472 482T511 423Q519 397 519 361V53Q539 16 544 -2Z" />
<glyph unicode="o" glyph-name="o" horiz-adv-x="570" d="M547 249Q547 140 474 62T292 -18Q183 -19 107 60T30 247Q30 357 105 436T289 515Q397 515 472 437T547 249ZM372 254Q372 305 362 390Q358 425 339 449T288 473Q228 473 214 390Q206 343 206 254Q206
152 216 99Q232 15 292 16Q345 17 364 101Q372 136 372 254Z" />
<glyph unicode="p" glyph-name="p" horiz-adv-x="560" d="M530 255Q530 150 486 82Q434 3 339 3Q270 3 211 62V36Q211 -50 211 -47Q214 -104 231 -136Q231 -136 27 -136Q44 -102 44 -33V440Q44 477 24 503Q24 508 35 508H321Q416 508 473 437T530 255ZM353 252Q353
337 331 393Q302 468 240 468Q220 468 211 465V207Q213 69 291 69Q353 69 353 252Z" />
<glyph unicode="q" glyph-name="q" horiz-adv-x="560" d="M528 507Q511 489 511 454Q511 425 511 396V-89Q517 -107 526 -140H332Q343 -117 347 -76Q349 -42 350 -8Q349 -2 349 24Q349 44 342 55Q284 1 211 1Q194 1 177 4Q121 15 81 69Q46 116 33 179Q25 220 25
260Q25 416 137 485Q172 507 236 508Q292 509 383 508Q508 507 528 507ZM342 460Q341 462 335 468Q289 468 266 451Q207 407 204 296Q202 235 202 227Q202 126 242 78Q265 63 295 72Q330 92 335 121Q345 178 345 254Q345 280 343 355Q341 420 342 460Z" />
<glyph unicode="r" glyph-name="r" horiz-adv-x="480" d="M448 300Q389 289 279 272Q300 361 300 399Q300 430 276 446Q256 460 236 445Q220 433 214 411Q212 406 207 371Q206 312 207 210Q208 83 208 52Q210 42 229 -2L27 -1Q29 5 39 32Q47 52 47 67V450Q47 482
28 507H201Q204 507 205 491T213 475Q216 475 221 478Q264 520 328 520Q372 520 401 496Q455 452 455 360Q455 329 448 300Z" />
<glyph unicode="s" glyph-name="s" horiz-adv-x="520" d="M495 162Q495 74 412 14Q389 -3 352 -8Q319 -12 286 -15Q260 -12 178 10Q113 27 70 23Q65 22 56 14T42 5Q36 5 31 17Q18 43 27 82Q54 130 99 133Q108 134 116 134Q159 134 225 80T328 25Q350 25 373 37Q396
60 397 89Q398 117 372 138Q368 141 322 167Q236 189 149 210Q51 244 36 334Q34 346 34 358Q34 419 88 472Q143 516 231 516Q264 516 333 508T436 500Q457 500 476 502Q476 502 478 498Q468 414 405 387Q387 379 365 379Q328 379 299 400Q295 405 295 411Q295 415
297 422T300 434Q300 438 299 441Q279 479 206 479Q178 479 152 441Q147 434 147 424Q147 408 159 392T186 372Q252 356 318 340Q400 318 441 284Q495 239 495 162Z" />
<glyph unicode="t" glyph-name="t" horiz-adv-x="320" d="M292 75Q261 7 209 -3Q196 -5 182 -5Q113 -5 81 39T49 128V449Q49 462 48 462H20Q11 464 16 474Q46 499 92 564T167 654Q214 694 273 693Q213 649 213 546Q213 527 215 507H290V464H220Q213 464 213 448V138Q213
124 226 110Q234 103 243 95Q247 91 255 91Q262 91 276 96T295 102Q299 102 299 97Q299 90 292 75Z" />
<glyph unicode="u" glyph-name="u" horiz-adv-x="570" d="M543 3Q546 1 542 0H360Q359 17 350 47Q306 18 284 8Q247 -9 209 -10Q159 -11 117 16T58 90Q46 159 47 277Q48 417 44 464Q41 478 26 501Q25 504 32 508H207Q213 357 213 123Q219 96 224 86Q232 67 249
58Q283 45 306 60Q355 93 356 143Q354 247 354 451Q350 465 346 479T332 502Q337 505 335 506H512Q516 502 517 500Q518 353 520 65Q524 48 528 31T543 3Z" />
<glyph unicode="v" glyph-name="v" horiz-adv-x="550" d="M508 465Q523 426 523 386Q523 331 493 268Q477 234 430 159Q387 90 371 51Q369 39 373 26T382 0H179Q192 47 183 72Q169 112 117 283Q78 413 42 489Q34 495 25 508H251Q239 496 238 476Q238 473 239 440Q273
325 345 103Q346 102 350 106Q369 159 388 212Q411 281 411 327Q411 395 364 437Q337 451 306 441Q303 448 303 454Q303 467 316 482Q327 493 339 505Q367 523 404 523Q479 523 508 465Z" />
<glyph unicode="w" glyph-name="w" horiz-adv-x="790" d="M752 336Q738 279 691 195Q633 92 620 59Q618 41 636 0H430Q428 7 434 22T441 44Q436 92 387 225Q378 223 374 212Q371 193 351 133Q335 84 335 54Q335 25 347 0H140Q149 23 153 56Q85 306 38 457Q35 461
20 508Q199 508 215 507Q217 502 211 494T205 481Q204 450 214 422Q227 384 256 271Q281 173 304 121Q324 174 363 305Q352 350 327 434Q310 479 286 507H503Q482 474 491 440Q534 279 580 128Q586 109 594 109Q598 109 601 118Q616 167 630 216Q646 275 646 320Q646
339 643 358Q632 404 630 409Q619 437 598 446Q569 453 546 446Q543 450 543 454Q543 459 547 468T553 481Q590 524 647 524Q667 524 683 519Q704 513 726 492Q758 455 758 389Q758 362 752 336Z" />
<glyph unicode="x" glyph-name="x" horiz-adv-x="580" d="M571 0H341Q338 7 339 22T337 45Q302 101 229 203Q181 180 176 114Q178 62 226 0H31Q26 8 26 19Q26 20 39 68Q53 120 105 168Q123 185 201 243Q179 285 55 469Q42 483 15 507H257Q263 507 263 503Q263
501 259 494T254 483Q254 447 294 393Q327 351 359 309Q383 320 400 355Q417 387 417 416Q417 432 405 444Q395 451 386 459Q381 464 364 461T346 466Q346 470 350 479Q372 526 428 526Q494 526 515 480Q521 467 521 449Q521 399 486 351Q470 330 444 314T393 284Q378
274 389 258Q432 192 474 125Q525 47 571 0Z" />
<glyph unicode="y" glyph-name="y" horiz-adv-x="560" d="M533 384Q533 266 403 101Q358 47 313 -7Q259 -72 259 -88Q259 -106 274 -106Q294 -106 321 -79T392 -51Q464 -51 464 -155Q458 -155 437 -148T407 -140Q385 -140 345 -148T284 -157Q258 -157 237 -139T216
-93Q216 -79 228 -53T241 -8Q241 6 235 22Q118 309 48 472Q48 478 37 489T25 503Q25 508 42 508Q77 508 147 508Q218 507 246 507Q238 471 238 465Q238 455 241 447Q281 336 363 124Q421 203 421 303Q421 445 319 445Q312 445 312 452Q312 471 338 496Q368 524
404 524Q469 524 503 481Q533 444 533 384Z" />
<glyph unicode="z" glyph-name="z" horiz-adv-x="540" d="M507 505Q412 351 224 49Q223 40 229 37T245 35Q299 35 313 37Q352 43 372 67Q397 97 396 135Q395 137 390 149Q386 158 382 164T371 175Q383 190 439 182Q480 171 505 134Q513 115 513 93Q513 71 504
53Q470 -1 400 -1H10Q6 4 10 8Q62 86 147 227Q246 390 282 447Q296 468 296 470Q296 475 288 475Q164 475 51 334Q49 335 49 337Q57 394 70 507L504 508Q508 505 507 505Z" />
<glyph unicode="{" glyph-name="braceleft" horiz-adv-x="350" d="M304 -177Q203 -177 162 -149Q110 -114 110 -20V182Q110 225 95 249T48 296Q83 318 96 342T110 409V597Q110 690 162 725Q204 753 304 754V721Q259 721 237 697T215 594V409Q215 346 186 317Q175
307 158 296Q215 260 215 177V-45Q215 -144 304 -144V-177Z" />
<glyph unicode="|" glyph-name="bar" horiz-adv-x="350" d="M212 -89Q212 -99 207 -99H145Q139 -99 139 -89V714Q139 723 145 723H205Q212 723 212 711V-89Z" />
<glyph unicode="}" glyph-name="braceright" horiz-adv-x="350" d="M302 296Q271 273 256 249T240 182V-20Q240 -114 188 -149Q147 -177 46 -177V-144Q135 -144 135 -45V177Q135 260 192 296Q159 317 147 340T135 409V594Q135 673 113 697T46 721V754Q146 753
188 725Q240 690 240 597V409Q240 367 253 343T302 296Z" />
<glyph unicode="~" glyph-name="asciitilde" horiz-adv-x="375" d="M341 409Q341 272 261 272Q228 272 193 294L164 312Q137 329 123 329Q94 329 95 265H34Q34 334 60 371Q83 403 120 403Q150 403 178 385L211 364Q241 345 254 345Q283 345 280 409H341Z" />
</font>
</defs>
</svg>
